<svg width="550" height="550" viewBox="0 0 550 550" fill="none" xmlns="http://www.w3.org/2000/svg">
<rect width="550" height="550" />
<path d="M531 275C531 416.385 416.385 531 275 531C133.615 531 19 416.385 19 275C19 133.615 133.615 19 275 19C275 275 275 275 531 275Z" fill="#262728"/>
<path d="M531 275C531 416.385 416.385 531 275 531C133.615 531 19 416.385 19 275C19 133.615 275 275 275 19C275 275 275 275 531 275Z" fill="#A4B8D1"/>
<path d="M531 275C531 416.385 275 275 275 531C133.615 531 19 416.385 19 275C19 133.615 275 275 275 19C275 275 275 275 531 275Z" fill="#52657E"/>
<rect x="375" y="19" width="156" height="156" rx="78" fill="#F25353"/>
</svg>
